<svg xmlns="http://www.w3.org/2000/svg" width="440" height="280" viewBox="0 0 440 280" role="img" aria-labelledby="title desc">
  <title id="title">Tab Bookmark Grouper promotional tile</title>
  <desc id="desc">A professional neo-brutalist pixel promotional image for Tab Bookmark Grouper.</desc>
  <defs>
    <linearGradient id="bg" x1="0" y1="0" x2="1" y2="1">
      <stop offset="0" stop-color="#d1fae5"/>
      <stop offset="0.48" stop-color="#a7f3d0"/>
      <stop offset="1" stop-color="#67e8f9"/>
    </linearGradient>
    <filter id="shadow" x="-20%" y="-20%" width="140%" height="140%">
      <feDropShadow dx="7" dy="7" stdDeviation="0" flood-color="#1c1917" flood-opacity="1"/>
    </filter>
  </defs>

  <rect width="440" height="280" fill="url(#bg)"/>
  <rect x="18" y="18" width="404" height="244" rx="22" fill="#f8fafc" stroke="#1c1917" stroke-width="5" filter="url(#shadow)"/>

  <g transform="translate(44 48)">
    <rect x="0" y="0" width="150" height="140" rx="12" fill="#ffffff" stroke="#1c1917" stroke-width="5"/>
    <rect x="16" y="20" width="118" height="18" rx="4" fill="#fb7185" stroke="#1c1917" stroke-width="3"/>
    <rect x="16" y="55" width="118" height="18" rx="4" fill="#38bdf8" stroke="#1c1917" stroke-width="3"/>
    <rect x="16" y="90" width="118" height="18" rx="4" fill="#a78bfa" stroke="#1c1917" stroke-width="3"/>
    <path d="M16 124h78" stroke="#1c1917" stroke-width="5" stroke-linecap="square"/>
  </g>

  <g transform="translate(172 34)">
    <rect x="0" y="0" width="84" height="64" rx="10" fill="#d1fae5" stroke="#1c1917" stroke-width="5"/>
    <g transform="translate(20 15) scale(4)" fill="#1c1917">
      <path d="M2 0h1v1H2zm6 0h1v1H8zM3 1h1v1H3zm4 0h1v1H7zM2 2h7v1H2zM1 3h2v1H1zm3 0h3v1H4zm4 0h2v1H8zM0 4h11v1H0zM0 5h1v1H0zm2 0h7v1H2zm8 0h1v1H10zM0 6h1v1H0zm2 0h1v1H2zm6 0h1v1H8zm2 0h1v1H10zM3 7h2v1H3zm3 0h2v1H6z"/>
    </g>
  </g>

  <g transform="translate(242 64)">
    <rect x="0" y="0" width="138" height="30" rx="10" fill="#fb7185" stroke="#1c1917" stroke-width="4"/>
    <rect x="16" y="11" width="84" height="8" rx="4" fill="#ffffff"/>
    <rect x="-20" y="48" width="148" height="30" rx="10" fill="#38bdf8" stroke="#1c1917" stroke-width="4"/>
    <rect x="-4" y="59" width="88" height="8" rx="4" fill="#ffffff"/>
    <rect x="0" y="96" width="120" height="30" rx="10" fill="#a78bfa" stroke="#1c1917" stroke-width="4"/>
    <rect x="16" y="107" width="68" height="8" rx="4" fill="#ffffff"/>
  </g>

  <text x="220" y="214" text-anchor="middle" font-family="Menlo, SFMono-Regular, monospace" font-size="25" font-weight="900" fill="#1c1917">Tab Bookmark Grouper</text>
  <text x="220" y="240" text-anchor="middle" font-family="Menlo, SFMono-Regular, monospace" font-size="15" font-weight="800" fill="#334155">Open bookmarks into organized tab groups</text>
</svg>
