<svg xmlns="http://www.w3.org/2000/svg" width="1400" height="560" viewBox="0 0 1400 560" role="img" aria-labelledby="title desc">
  <title id="title">Tab Bookmark Grouper marquee promotional image</title>
  <desc id="desc">A polished neo-brutalist pixel marquee banner for Tab Bookmark Grouper.</desc>
  <defs>
    <linearGradient id="bg" x1="0" y1="0" x2="1" y2="1">
      <stop offset="0" stop-color="#d1fae5"/>
      <stop offset="0.5" stop-color="#a7f3d0"/>
      <stop offset="1" stop-color="#67e8f9"/>
    </linearGradient>
    <filter id="shadow" x="-10%" y="-10%" width="120%" height="120%">
      <feDropShadow dx="12" dy="12" stdDeviation="0" flood-color="#1c1917" flood-opacity="1"/>
    </filter>
  </defs>

  <rect width="1400" height="560" fill="url(#bg)"/>
  <circle cx="126" cy="96" r="96" fill="#fef08a" opacity="0.55"/>
  <circle cx="1260" cy="464" r="150" fill="#fb7185" opacity="0.24"/>

  <g transform="translate(70 68)">
    <rect x="0" y="0" width="560" height="424" rx="28" fill="#f8fafc" stroke="#1c1917" stroke-width="7" filter="url(#shadow)"/>
    <rect x="42" y="46" width="216" height="188" rx="14" fill="#ffffff" stroke="#1c1917" stroke-width="6"/>
    <rect x="70" y="82" width="160" height="24" rx="6" fill="#fb7185" stroke="#1c1917" stroke-width="4"/>
    <rect x="70" y="132" width="160" height="24" rx="6" fill="#38bdf8" stroke="#1c1917" stroke-width="4"/>
    <rect x="70" y="182" width="160" height="24" rx="6" fill="#a78bfa" stroke="#1c1917" stroke-width="4"/>

    <g transform="translate(250 36)">
      <rect x="0" y="0" width="130" height="96" rx="16" fill="#d1fae5" stroke="#1c1917" stroke-width="6"/>
      <g transform="translate(34 24) scale(5.5)" fill="#1c1917">
        <path d="M2 0h1v1H2zm6 0h1v1H8zM3 1h1v1H3zm4 0h1v1H7zM2 2h7v1H2zM1 3h2v1H1zm3 0h3v1H4zm4 0h2v1H8zM0 4h11v1H0zM0 5h1v1H0zm2 0h7v1H2zm8 0h1v1H10zM0 6h1v1H0zm2 0h1v1H2zm6 0h1v1H8zm2 0h1v1H10zM3 7h2v1H3zm3 0h2v1H6z"/>
      </g>
    </g>

    <g transform="translate(300 154)">
      <rect x="0" y="0" width="190" height="44" rx="14" fill="#fb7185" stroke="#1c1917" stroke-width="5"/>
      <rect x="24" y="17" width="116" height="10" rx="5" fill="#ffffff"/>
      <rect x="-44" y="72" width="220" height="44" rx="14" fill="#38bdf8" stroke="#1c1917" stroke-width="5"/>
      <rect x="-20" y="89" width="130" height="10" rx="5" fill="#ffffff"/>
      <rect x="0" y="144" width="174" height="44" rx="14" fill="#a78bfa" stroke="#1c1917" stroke-width="5"/>
      <rect x="24" y="161" width="96" height="10" rx="5" fill="#ffffff"/>
    </g>
  </g>

  <g transform="translate(720 122)">
    <text x="0" y="0" font-family="Menlo, SFMono-Regular, monospace" font-size="58" font-weight="900" fill="#1c1917">Tab Bookmark</text>
    <text x="0" y="70" font-family="Menlo, SFMono-Regular, monospace" font-size="58" font-weight="900" fill="#1c1917">Grouper</text>
    <path d="M0 102h454" stroke="#1c1917" stroke-width="8" stroke-dasharray="18 14" stroke-linecap="square"/>
    <text x="0" y="164" font-family="Menlo, SFMono-Regular, monospace" font-size="30" font-weight="800" fill="#334155">Open bookmarks into organized</text>
    <text x="0" y="204" font-family="Menlo, SFMono-Regular, monospace" font-size="30" font-weight="800" fill="#334155">Chrome tab groups.</text>

    <g transform="translate(0 258)">
      <rect x="0" y="0" width="174" height="54" rx="12" fill="#fb7185" stroke="#1c1917" stroke-width="5"/>
      <text x="87" y="36" text-anchor="middle" font-family="Menlo, SFMono-Regular, monospace" font-size="20" font-weight="900" fill="#ffffff">1-CLICK</text>
      <rect x="204" y="0" width="206" height="54" rx="12" fill="#38bdf8" stroke="#1c1917" stroke-width="5"/>
      <text x="307" y="36" text-anchor="middle" font-family="Menlo, SFMono-Regular, monospace" font-size="20" font-weight="900" fill="#1c1917">DOMAIN GROUP</text>
      <rect x="440" y="0" width="174" height="54" rx="12" fill="#a78bfa" stroke="#1c1917" stroke-width="5"/>
      <text x="527" y="36" text-anchor="middle" font-family="Menlo, SFMono-Regular, monospace" font-size="20" font-weight="900" fill="#1c1917">OFFLINE</text>
    </g>
  </g>
</svg>
